<svg width="32" height="32" viewBox="0 0 32 32" fill="none" xmlns="http://www.w3.org/2000/svg">
<rect x="6" y="6" width="20" height="20" fill="#4772FA"/>
<path d="M28 6V26C28 26.5304 27.7893 27.0391 27.4142 27.4142C27.0391 27.7893 26.5304 28 26 28H6C5.46957 28 4.96086 27.7893 4.58579 27.4142C4.21071 27.0391 4 26.5304 4 26V6C4 5.46957 4.21071 4.96086 4.58579 4.58579C4.96086 4.21071 5.46957 4 6 4H26C26.5304 4 27.0391 4.21071 27.4142 4.58579C27.7893 4.96086 28 5.46957 28 6ZM26 26V6H6V26H26Z" fill="#4772FA"/>
<path d="M21.9245 12.6171C21.8742 12.4957 21.8004 12.3854 21.7074 12.2926C21.6146 12.1996 21.5043 12.1258 21.3829 12.0755C21.2615 12.0252 21.1314 11.9993 20.9999 11.9993C20.8685 11.9993 20.7384 12.0252 20.617 12.0755C20.4956 12.1258 20.3853 12.1996 20.2924 12.2926L13.9999 18.5863L11.7074 16.2926C11.5198 16.1049 11.2653 15.9995 10.9999 15.9995C10.7346 15.9995 10.4801 16.1049 10.2924 16.2926C10.1048 16.4802 9.99939 16.7347 9.99939 17.0001C9.99939 17.2654 10.1048 17.5199 10.2924 17.7076L13.2924 20.7076C13.3853 20.8005 13.4956 20.8743 13.617 20.9246C13.7384 20.9749 13.8685 21.0008 13.9999 21.0008C14.1314 21.0008 14.2615 20.9749 14.3829 20.9246C14.5043 20.8743 14.6146 20.8005 14.7074 20.7076L21.7074 13.7076C21.8004 13.6147 21.8742 13.5044 21.9245 13.383C21.9748 13.2616 22.0007 13.1315 22.0007 13.0001C22.0007 12.8686 21.9748 12.7385 21.9245 12.6171Z" fill="white"/>
</svg>
